<mxfile host="app.diagrams.net" modified="2021-05-15T16:12:24.462Z" agent="5.0 (Windows NT 10.0; Win64; x64) AppleWebKit/537.36 (KHTML, like Gecko) Chrome/90.0.4430.212 Safari/537.36" etag="6cUtVJV1XfKG1D3YHKsq" version="14.6.13" type="github">
  <diagram name="Page-1" id="efa7a0a1-bf9b-a30e-e6df-94a7791c09e9">
    <mxGraphModel dx="317" dy="-657" grid="1" gridSize="10" guides="1" tooltips="1" connect="1" arrows="1" fold="1" page="1" pageScale="1" pageWidth="1169" pageHeight="827" background="#ffffff" math="0" shadow="0">
      <root>
        <mxCell id="0" />
        <mxCell id="1" parent="0" />
        <mxCell id="25" value="&lt;p style=&quot;margin: 0px ; margin-top: 4px ; text-align: center ; text-decoration: underline&quot;&gt;&lt;strong&gt;&lt;font color=&quot;#000000&quot;&gt;Addresses&lt;/font&gt;&lt;/strong&gt;&lt;/p&gt;&lt;hr&gt;&lt;p style=&quot;margin: 0px ; margin-left: 8px&quot;&gt;&lt;b&gt;&lt;font color=&quot;#000000&quot;&gt;AddressID (int)&lt;/font&gt;&lt;/b&gt;&lt;/p&gt;&lt;p style=&quot;margin: 0px ; margin-left: 8px&quot;&gt;&lt;/p&gt;&lt;p style=&quot;margin: 0px ; margin-left: 8px&quot;&gt;&lt;font color=&quot;#000000&quot;&gt;Street (String)&lt;/font&gt;&lt;/p&gt;&lt;p style=&quot;margin: 0px ; margin-left: 8px&quot;&gt;&lt;font color=&quot;#000000&quot;&gt;StreetNumber (int)&lt;/font&gt;&lt;/p&gt;&lt;p style=&quot;margin: 0px ; margin-left: 8px&quot;&gt;&lt;font color=&quot;#000000&quot;&gt;SecondLine (String)&lt;/font&gt;&lt;/p&gt;&lt;p style=&quot;margin: 0px ; margin-left: 8px&quot;&gt;&lt;font color=&quot;#000000&quot;&gt;Postcode (int)&lt;/font&gt;&lt;/p&gt;&lt;p style=&quot;margin: 0px ; margin-left: 8px&quot;&gt;&lt;font color=&quot;#000000&quot;&gt;City (String)&lt;/font&gt;&lt;/p&gt;&lt;p style=&quot;margin: 0px ; margin-left: 8px&quot;&gt;&lt;font color=&quot;#000000&quot;&gt;Country (String)&lt;/font&gt;&lt;/p&gt;" style="verticalAlign=top;align=left;overflow=fill;fontSize=12;fontFamily=Helvetica;html=1;shadow=0;fontColor=#003366;fillColor=none;" parent="1" vertex="1">
          <mxGeometry x="735" y="889" width="160" height="138.36" as="geometry" />
        </mxCell>
        <mxCell id="UFs2jIFRDD2P4dvM7TEg-115" value="&lt;p style=&quot;margin: 4px 0px 0px ; text-align: center&quot;&gt;&lt;font color=&quot;#000000&quot;&gt;&lt;span style=&quot;font-size: 12px&quot;&gt;&lt;b&gt;&lt;u&gt;ChangesOfAddresses&lt;/u&gt;&lt;/b&gt;&lt;/span&gt;&lt;/font&gt;&lt;br&gt;&lt;/p&gt;&lt;hr&gt;&lt;p style=&quot;margin: 0px ; margin-left: 8px&quot;&gt;&lt;b&gt;&lt;font color=&quot;#000000&quot;&gt;ProcessID (int)&lt;/font&gt;&lt;/b&gt;&lt;/p&gt;&lt;p style=&quot;margin: 0px ; margin-left: 8px&quot;&gt;&lt;/p&gt;&lt;p style=&quot;margin: 0px ; margin-left: 8px&quot;&gt;&lt;font color=&quot;#000000&quot;&gt;PersonID (int)&lt;/font&gt;&lt;/p&gt;&lt;p style=&quot;margin: 0px ; margin-left: 8px&quot;&gt;&lt;font color=&quot;#000000&quot;&gt;MoveInDate (date)&lt;/font&gt;&lt;/p&gt;&lt;p style=&quot;margin: 0px ; margin-left: 8px&quot;&gt;&lt;font color=&quot;#000000&quot;&gt;OldAddressID (int)&lt;/font&gt;&lt;/p&gt;&lt;p style=&quot;margin: 0px ; margin-left: 8px&quot;&gt;&lt;font color=&quot;#000000&quot;&gt;NewAddressID (int)&lt;/font&gt;&lt;/p&gt;&lt;p style=&quot;margin: 0px ; margin-left: 8px&quot;&gt;&lt;font color=&quot;#000000&quot;&gt;HouseOwnerID (int)&lt;/font&gt;&lt;/p&gt;&lt;p style=&quot;margin: 0px ; margin-left: 8px&quot;&gt;&lt;font color=&quot;#000000&quot;&gt;HouseProviderID (int)&lt;/font&gt;&lt;/p&gt;&lt;p style=&quot;margin: 0px ; margin-left: 8px&quot;&gt;&lt;font color=&quot;#000000&quot;&gt;AssigneeID (int)&lt;/font&gt;&lt;/p&gt;&lt;p style=&quot;margin: 0px ; margin-left: 8px&quot;&gt;&lt;font color=&quot;#000000&quot;&gt;ProcessStages (int)&lt;/font&gt;&lt;/p&gt;" style="verticalAlign=top;align=left;overflow=fill;fontSize=12;fontFamily=Helvetica;html=1;shadow=0;fontColor=#003366;fillColor=none;" parent="1" vertex="1">
          <mxGeometry x="465" y="1333" width="160" height="157" as="geometry" />
        </mxCell>
        <mxCell id="UFs2jIFRDD2P4dvM7TEg-116" value="&lt;p style=&quot;margin: 4px 0px 0px ; text-align: center&quot;&gt;&lt;font color=&quot;#000000&quot;&gt;&lt;span style=&quot;font-size: 12px&quot;&gt;&lt;b&gt;&lt;u&gt;HouseOwners&lt;/u&gt;&lt;/b&gt;&lt;/span&gt;&lt;/font&gt;&lt;br&gt;&lt;/p&gt;&lt;hr&gt;&lt;p style=&quot;margin: 0px ; margin-left: 8px&quot;&gt;&lt;b&gt;&lt;font color=&quot;#000000&quot;&gt;OwnerID (int)&lt;/font&gt;&lt;/b&gt;&lt;/p&gt;&lt;p style=&quot;margin: 0px ; margin-left: 8px&quot;&gt;&lt;/p&gt;&lt;p style=&quot;margin: 0px ; margin-left: 8px&quot;&gt;&lt;font color=&quot;#000000&quot;&gt;Name (String)&lt;/font&gt;&lt;/p&gt;&lt;p style=&quot;margin: 0px ; margin-left: 8px&quot;&gt;&lt;font color=&quot;#000000&quot;&gt;Surnme (String)&lt;/font&gt;&lt;/p&gt;&lt;p style=&quot;margin: 0px ; margin-left: 8px&quot;&gt;&lt;font color=&quot;#000000&quot;&gt;AddressID (int)&lt;/font&gt;&lt;/p&gt;&lt;p style=&quot;margin: 0px ; margin-left: 8px&quot;&gt;&lt;font color=&quot;#000000&quot;&gt;&lt;br&gt;&lt;/font&gt;&lt;/p&gt;" style="verticalAlign=top;align=left;overflow=fill;fontSize=12;fontFamily=Helvetica;html=1;shadow=0;fontColor=#003366;fillColor=none;" parent="1" vertex="1">
          <mxGeometry x="950" y="1169" width="160" height="90" as="geometry" />
        </mxCell>
        <mxCell id="UFs2jIFRDD2P4dvM7TEg-117" value="&lt;p style=&quot;margin: 4px 0px 0px ; text-align: center&quot;&gt;&lt;font color=&quot;#000000&quot;&gt;&lt;span style=&quot;font-size: 12px&quot;&gt;&lt;b&gt;&lt;u&gt;HouseProviders&lt;/u&gt;&lt;/b&gt;&lt;/span&gt;&lt;/font&gt;&lt;br&gt;&lt;/p&gt;&lt;hr&gt;&lt;p style=&quot;margin: 0px ; margin-left: 8px&quot;&gt;&lt;b&gt;&lt;font color=&quot;#000000&quot;&gt;ProviderID (int)&lt;/font&gt;&lt;/b&gt;&lt;/p&gt;&lt;p style=&quot;margin: 0px ; margin-left: 8px&quot;&gt;&lt;/p&gt;&lt;p style=&quot;margin: 0px ; margin-left: 8px&quot;&gt;&lt;font color=&quot;#000000&quot;&gt;Name (String)&lt;/font&gt;&lt;/p&gt;&lt;p style=&quot;margin: 0px ; margin-left: 8px&quot;&gt;&lt;font color=&quot;#000000&quot;&gt;Surnme (String)&lt;/font&gt;&lt;/p&gt;&lt;p style=&quot;margin: 0px ; margin-left: 8px&quot;&gt;&lt;font color=&quot;#000000&quot;&gt;AddressID (int)&lt;/font&gt;&lt;/p&gt;&lt;p style=&quot;margin: 0px ; margin-left: 8px&quot;&gt;&lt;font color=&quot;#000000&quot;&gt;&lt;br&gt;&lt;/font&gt;&lt;/p&gt;" style="verticalAlign=top;align=left;overflow=fill;fontSize=12;fontFamily=Helvetica;html=1;shadow=0;fontColor=#003366;fillColor=none;" parent="1" vertex="1">
          <mxGeometry x="950" y="1019" width="160" height="90" as="geometry" />
        </mxCell>
        <mxCell id="UFs2jIFRDD2P4dvM7TEg-118" value="&lt;p style=&quot;margin: 4px 0px 0px ; text-align: center&quot;&gt;&lt;font color=&quot;#000000&quot;&gt;&lt;span style=&quot;font-size: 12px&quot;&gt;&lt;b&gt;&lt;u&gt;Identifications&lt;/u&gt;&lt;/b&gt;&lt;/span&gt;&lt;/font&gt;&lt;br&gt;&lt;/p&gt;&lt;hr&gt;&lt;p style=&quot;margin: 0px ; margin-left: 8px&quot;&gt;&lt;b&gt;&lt;font color=&quot;#000000&quot;&gt;IDNumber (int)&lt;/font&gt;&lt;/b&gt;&lt;/p&gt;&lt;p style=&quot;margin: 0px ; margin-left: 8px&quot;&gt;&lt;/p&gt;&lt;p style=&quot;margin: 0px ; margin-left: 8px&quot;&gt;&lt;font color=&quot;#000000&quot;&gt;IssuingAuthority (String)&lt;/font&gt;&lt;/p&gt;&lt;p style=&quot;margin: 0px ; margin-left: 8px&quot;&gt;&lt;font color=&quot;#000000&quot;&gt;DateOfIssuing (Date)&lt;/font&gt;&lt;/p&gt;&lt;p style=&quot;margin: 0px ; margin-left: 8px&quot;&gt;&lt;font color=&quot;#000000&quot;&gt;ExpiryDate (Date)&lt;/font&gt;&lt;/p&gt;&lt;p style=&quot;margin: 0px ; margin-left: 8px&quot;&gt;&lt;font color=&quot;#000000&quot;&gt;&lt;br&gt;&lt;/font&gt;&lt;/p&gt;" style="verticalAlign=top;align=left;overflow=fill;fontSize=12;fontFamily=Helvetica;html=1;shadow=0;fontColor=#003366;fillColor=none;" parent="1" vertex="1">
          <mxGeometry x="60" y="1094" width="160" height="90" as="geometry" />
        </mxCell>
        <mxCell id="UFs2jIFRDD2P4dvM7TEg-119" value="&lt;p style=&quot;margin: 4px 0px 0px ; text-align: center&quot;&gt;&lt;font color=&quot;#000000&quot;&gt;&lt;span style=&quot;font-size: 12px&quot;&gt;&lt;b&gt;&lt;u&gt;Persons&lt;/u&gt;&lt;/b&gt;&lt;/span&gt;&lt;/font&gt;&lt;br&gt;&lt;/p&gt;&lt;hr&gt;&lt;p style=&quot;margin: 0px ; margin-left: 8px&quot;&gt;&lt;b&gt;&lt;font color=&quot;#000000&quot;&gt;PersonID (int)&lt;/font&gt;&lt;/b&gt;&lt;/p&gt;&lt;p style=&quot;margin: 0px ; margin-left: 8px&quot;&gt;&lt;/p&gt;&lt;p style=&quot;margin: 0px ; margin-left: 8px&quot;&gt;&lt;font color=&quot;#000000&quot;&gt;Name (String)&lt;/font&gt;&lt;/p&gt;&lt;p style=&quot;margin: 0px ; margin-left: 8px&quot;&gt;&lt;font color=&quot;#000000&quot;&gt;Surname (String)&lt;/font&gt;&lt;/p&gt;&lt;p style=&quot;margin: 0px ; margin-left: 8px&quot;&gt;&lt;font color=&quot;#000000&quot;&gt;Gender (&lt;/font&gt;&lt;span style=&quot;color: rgb(0 , 0 , 0)&quot;&gt;String&lt;/span&gt;&lt;font color=&quot;#000000&quot;&gt;)&lt;/font&gt;&lt;/p&gt;&lt;p style=&quot;margin: 0px ; margin-left: 8px&quot;&gt;&lt;font color=&quot;#000000&quot;&gt;AddressID (int)&lt;/font&gt;&lt;/p&gt;&lt;p style=&quot;margin: 0px ; margin-left: 8px&quot;&gt;&lt;font color=&quot;#000000&quot;&gt;DateOfBirth (Date)&lt;/font&gt;&lt;/p&gt;&lt;p style=&quot;margin: 0px ; margin-left: 8px&quot;&gt;&lt;font color=&quot;#000000&quot;&gt;PlaceOfBirth (String)&lt;/font&gt;&lt;/p&gt;&lt;p style=&quot;margin: 0px ; margin-left: 8px&quot;&gt;&lt;font color=&quot;#000000&quot;&gt;MaritalStatus (String)&lt;/font&gt;&lt;/p&gt;&lt;p style=&quot;margin: 0px ; margin-left: 8px&quot;&gt;&lt;font color=&quot;#000000&quot;&gt;DateOfMarriage (Date)&lt;/font&gt;&lt;/p&gt;&lt;p style=&quot;margin: 0px ; margin-left: 8px&quot;&gt;&lt;font color=&quot;#000000&quot;&gt;PlaceOfMarriage (String)&lt;/font&gt;&lt;/p&gt;&lt;p style=&quot;margin: 0px ; margin-left: 8px&quot;&gt;&lt;font color=&quot;#000000&quot;&gt;Citizenship (String)&lt;/font&gt;&lt;/p&gt;&lt;p style=&quot;margin: 0px ; margin-left: 8px&quot;&gt;&lt;font color=&quot;#000000&quot;&gt;IDNumber (String)&lt;/font&gt;&lt;/p&gt;&lt;p style=&quot;margin: 0px ; margin-left: 8px&quot;&gt;&lt;font color=&quot;#000000&quot;&gt;&lt;br&gt;&lt;/font&gt;&lt;/p&gt;" style="verticalAlign=top;align=left;overflow=fill;fontSize=12;fontFamily=Helvetica;html=1;shadow=0;fontColor=#003366;fillColor=none;" parent="1" vertex="1">
          <mxGeometry x="405" y="1039" width="160" height="200" as="geometry" />
        </mxCell>
        <mxCell id="UFs2jIFRDD2P4dvM7TEg-120" value="&lt;p style=&quot;margin: 4px 0px 0px ; text-align: center&quot;&gt;&lt;font color=&quot;#000000&quot;&gt;&lt;b&gt;&lt;u&gt;Processes&lt;/u&gt;&lt;/b&gt;&lt;/font&gt;&lt;/p&gt;&lt;hr&gt;&lt;p style=&quot;margin: 0px ; margin-left: 8px&quot;&gt;&lt;b&gt;&lt;font color=&quot;#000000&quot;&gt;ProcessID (int)&lt;/font&gt;&lt;/b&gt;&lt;/p&gt;&lt;p style=&quot;margin: 0px ; margin-left: 8px&quot;&gt;&lt;font color=&quot;#000000&quot;&gt;Type (String)&lt;/font&gt;&lt;/p&gt;&lt;p style=&quot;margin: 0px ; margin-left: 8px&quot;&gt;&lt;font color=&quot;#000000&quot;&gt;&lt;br&gt;&lt;/font&gt;&lt;/p&gt;" style="verticalAlign=top;align=left;overflow=fill;fontSize=12;fontFamily=Helvetica;html=1;shadow=0;fontColor=#003366;fillColor=none;" parent="1" vertex="1">
          <mxGeometry x="165" y="1509" width="160" height="71" as="geometry" />
        </mxCell>
        <mxCell id="UFs2jIFRDD2P4dvM7TEg-121" value="" style="endArrow=classic;html=1;exitX=-0.006;exitY=0.46;exitDx=0;exitDy=0;exitPerimeter=0;entryX=0.434;entryY=-0.005;entryDx=0;entryDy=0;entryPerimeter=0;" parent="1" source="UFs2jIFRDD2P4dvM7TEg-119" target="25" edge="1">
          <mxGeometry relative="1" as="geometry">
            <mxPoint x="355" y="1009" as="sourcePoint" />
            <mxPoint x="811" y="880" as="targetPoint" />
            <Array as="points">
              <mxPoint x="350" y="1131" />
              <mxPoint x="350" y="849" />
              <mxPoint x="415" y="849" />
              <mxPoint x="804" y="849" />
            </Array>
          </mxGeometry>
        </mxCell>
        <mxCell id="UFs2jIFRDD2P4dvM7TEg-123" value="n" style="edgeLabel;resizable=0;html=1;align=left;verticalAlign=bottom;" parent="UFs2jIFRDD2P4dvM7TEg-121" connectable="0" vertex="1">
          <mxGeometry x="-1" relative="1" as="geometry">
            <mxPoint x="-17" as="offset" />
          </mxGeometry>
        </mxCell>
        <mxCell id="UFs2jIFRDD2P4dvM7TEg-124" value="1" style="edgeLabel;resizable=0;html=1;align=right;verticalAlign=bottom;" parent="UFs2jIFRDD2P4dvM7TEg-121" connectable="0" vertex="1">
          <mxGeometry x="1" relative="1" as="geometry">
            <mxPoint x="-10" as="offset" />
          </mxGeometry>
        </mxCell>
        <mxCell id="UFs2jIFRDD2P4dvM7TEg-126" value="" style="endArrow=classic;html=1;exitX=-0.01;exitY=0.845;exitDx=0;exitDy=0;exitPerimeter=0;entryX=0.766;entryY=-0.009;entryDx=0;entryDy=0;entryPerimeter=0;" parent="1" source="UFs2jIFRDD2P4dvM7TEg-116" target="25" edge="1">
          <mxGeometry relative="1" as="geometry">
            <mxPoint x="751.96" y="1312.6" as="sourcePoint" />
            <mxPoint x="860" y="880" as="targetPoint" />
            <Array as="points">
              <mxPoint x="920" y="1245" />
              <mxPoint x="920" y="860" />
              <mxPoint x="858" y="860" />
            </Array>
          </mxGeometry>
        </mxCell>
        <mxCell id="UFs2jIFRDD2P4dvM7TEg-127" value="n" style="edgeLabel;resizable=0;html=1;align=left;verticalAlign=bottom;" parent="UFs2jIFRDD2P4dvM7TEg-126" connectable="0" vertex="1">
          <mxGeometry x="-1" relative="1" as="geometry">
            <mxPoint x="-17" as="offset" />
          </mxGeometry>
        </mxCell>
        <mxCell id="UFs2jIFRDD2P4dvM7TEg-128" value="1" style="edgeLabel;resizable=0;html=1;align=right;verticalAlign=bottom;" parent="UFs2jIFRDD2P4dvM7TEg-126" connectable="0" vertex="1">
          <mxGeometry x="1" relative="1" as="geometry">
            <mxPoint x="17" as="offset" />
          </mxGeometry>
        </mxCell>
        <mxCell id="UFs2jIFRDD2P4dvM7TEg-129" value="" style="endArrow=classic;html=1;exitX=0;exitY=0.852;exitDx=0;exitDy=0;exitPerimeter=0;entryX=0.561;entryY=0;entryDx=0;entryDy=0;entryPerimeter=0;" parent="1" source="UFs2jIFRDD2P4dvM7TEg-117" target="25" edge="1">
          <mxGeometry relative="1" as="geometry">
            <mxPoint x="1252.7599999999998" y="1238.9899999999998" as="sourcePoint" />
            <mxPoint x="840" y="888" as="targetPoint" />
            <Array as="points">
              <mxPoint x="930" y="1096" />
              <mxPoint x="930" y="849" />
              <mxPoint x="825" y="849" />
            </Array>
          </mxGeometry>
        </mxCell>
        <mxCell id="UFs2jIFRDD2P4dvM7TEg-130" value="n" style="edgeLabel;resizable=0;html=1;align=left;verticalAlign=bottom;" parent="UFs2jIFRDD2P4dvM7TEg-129" connectable="0" vertex="1">
          <mxGeometry x="-1" relative="1" as="geometry">
            <mxPoint x="-17" as="offset" />
          </mxGeometry>
        </mxCell>
        <mxCell id="UFs2jIFRDD2P4dvM7TEg-131" value="1" style="edgeLabel;resizable=0;html=1;align=right;verticalAlign=bottom;" parent="UFs2jIFRDD2P4dvM7TEg-129" connectable="0" vertex="1">
          <mxGeometry x="1" relative="1" as="geometry">
            <mxPoint x="17" as="offset" />
          </mxGeometry>
        </mxCell>
        <mxCell id="UFs2jIFRDD2P4dvM7TEg-142" value="" style="endArrow=classic;html=1;exitX=0;exitY=0.5;exitDx=0;exitDy=0;endFill=1;startArrow=classic;startFill=1;" parent="1" source="UFs2jIFRDD2P4dvM7TEg-120" edge="1">
          <mxGeometry relative="1" as="geometry">
            <mxPoint x="145" y="1589" as="sourcePoint" />
            <mxPoint x="463" y="1350" as="targetPoint" />
            <Array as="points">
              <mxPoint x="105" y="1544" />
              <mxPoint x="105" y="1632" />
              <mxPoint x="380" y="1632" />
              <mxPoint x="380" y="1350" />
            </Array>
          </mxGeometry>
        </mxCell>
        <mxCell id="UFs2jIFRDD2P4dvM7TEg-146" value="" style="endArrow=classic;html=1;exitX=-0.015;exitY=0.923;exitDx=0;exitDy=0;exitPerimeter=0;entryX=1.004;entryY=0.146;entryDx=0;entryDy=0;entryPerimeter=0;" parent="1" source="UFs2jIFRDD2P4dvM7TEg-119" target="UFs2jIFRDD2P4dvM7TEg-118" edge="1">
          <mxGeometry relative="1" as="geometry">
            <mxPoint x="371.96000000000004" y="1226.1999999999998" as="sourcePoint" />
            <mxPoint x="195" y="1226" as="targetPoint" />
            <Array as="points">
              <mxPoint x="310" y="1224" />
              <mxPoint x="310" y="1107" />
            </Array>
          </mxGeometry>
        </mxCell>
        <mxCell id="UFs2jIFRDD2P4dvM7TEg-147" value="1" style="edgeLabel;resizable=0;html=1;align=left;verticalAlign=bottom;" parent="UFs2jIFRDD2P4dvM7TEg-146" connectable="0" vertex="1">
          <mxGeometry x="-1" relative="1" as="geometry">
            <mxPoint x="-17" as="offset" />
          </mxGeometry>
        </mxCell>
        <mxCell id="UFs2jIFRDD2P4dvM7TEg-148" value="1" style="edgeLabel;resizable=0;html=1;align=right;verticalAlign=bottom;" parent="UFs2jIFRDD2P4dvM7TEg-146" connectable="0" vertex="1">
          <mxGeometry x="1" relative="1" as="geometry">
            <mxPoint x="20" as="offset" />
          </mxGeometry>
        </mxCell>
        <mxCell id="UFs2jIFRDD2P4dvM7TEg-149" value="" style="endArrow=classic;html=1;entryX=-0.007;entryY=0.048;entryDx=0;entryDy=0;entryPerimeter=0;exitX=-0.014;exitY=0.345;exitDx=0;exitDy=0;exitPerimeter=0;" parent="1" source="UFs2jIFRDD2P4dvM7TEg-115" target="UFs2jIFRDD2P4dvM7TEg-119" edge="1">
          <mxGeometry relative="1" as="geometry">
            <mxPoint x="435" y="1399" as="sourcePoint" />
            <mxPoint x="365" y="1049" as="targetPoint" />
            <Array as="points">
              <mxPoint x="365" y="1387" />
              <mxPoint x="365" y="1049" />
            </Array>
          </mxGeometry>
        </mxCell>
        <mxCell id="UFs2jIFRDD2P4dvM7TEg-150" value="1" style="edgeLabel;resizable=0;html=1;align=left;verticalAlign=bottom;" parent="UFs2jIFRDD2P4dvM7TEg-149" connectable="0" vertex="1">
          <mxGeometry x="-1" relative="1" as="geometry">
            <mxPoint x="-17" as="offset" />
          </mxGeometry>
        </mxCell>
        <mxCell id="UFs2jIFRDD2P4dvM7TEg-151" value="n" style="edgeLabel;resizable=0;html=1;align=right;verticalAlign=bottom;" parent="UFs2jIFRDD2P4dvM7TEg-149" connectable="0" vertex="1">
          <mxGeometry x="1" relative="1" as="geometry">
            <mxPoint x="-10" as="offset" />
          </mxGeometry>
        </mxCell>
        <mxCell id="UFs2jIFRDD2P4dvM7TEg-152" value="" style="endArrow=classic;html=1;exitX=-0.002;exitY=0.488;exitDx=0;exitDy=0;entryX=0.002;entryY=0.091;entryDx=0;entryDy=0;entryPerimeter=0;exitPerimeter=0;" parent="1" source="UFs2jIFRDD2P4dvM7TEg-115" target="25" edge="1">
          <mxGeometry relative="1" as="geometry">
            <mxPoint x="673.4" y="1409" as="sourcePoint" />
            <mxPoint x="795" y="869" as="targetPoint" />
            <Array as="points">
              <mxPoint x="400" y="1410" />
              <mxPoint x="400" y="1580" />
              <mxPoint x="683" y="1580" />
              <mxPoint x="683" y="1253" />
              <mxPoint x="683" y="902" />
              <mxPoint x="705" y="902" />
            </Array>
          </mxGeometry>
        </mxCell>
        <mxCell id="UFs2jIFRDD2P4dvM7TEg-153" value="n" style="edgeLabel;resizable=0;html=1;align=left;verticalAlign=bottom;fontSize=9;" parent="UFs2jIFRDD2P4dvM7TEg-152" connectable="0" vertex="1">
          <mxGeometry x="-1" relative="1" as="geometry">
            <mxPoint x="-14" y="1" as="offset" />
          </mxGeometry>
        </mxCell>
        <mxCell id="UFs2jIFRDD2P4dvM7TEg-154" value="1" style="edgeLabel;resizable=0;html=1;align=right;verticalAlign=bottom;" parent="UFs2jIFRDD2P4dvM7TEg-152" connectable="0" vertex="1">
          <mxGeometry x="1" relative="1" as="geometry">
            <mxPoint x="-10" as="offset" />
          </mxGeometry>
        </mxCell>
        <mxCell id="UFs2jIFRDD2P4dvM7TEg-156" value="" style="endArrow=classic;html=1;entryX=0.218;entryY=-0.019;entryDx=0;entryDy=0;entryPerimeter=0;exitX=-0.006;exitY=0.581;exitDx=0;exitDy=0;exitPerimeter=0;" parent="1" source="UFs2jIFRDD2P4dvM7TEg-115" target="25" edge="1">
          <mxGeometry relative="1" as="geometry">
            <mxPoint x="430" y="1428" as="sourcePoint" />
            <mxPoint x="785" y="869" as="targetPoint" />
            <Array as="points">
              <mxPoint x="410" y="1424" />
              <mxPoint x="410" y="1570" />
              <mxPoint x="673" y="1570" />
              <mxPoint x="673" y="1273" />
              <mxPoint x="673" y="859" />
              <mxPoint x="770" y="859" />
            </Array>
          </mxGeometry>
        </mxCell>
        <mxCell id="UFs2jIFRDD2P4dvM7TEg-157" value="n" style="edgeLabel;resizable=0;html=1;align=left;verticalAlign=bottom;fontSize=9;" parent="UFs2jIFRDD2P4dvM7TEg-156" connectable="0" vertex="1">
          <mxGeometry x="-1" relative="1" as="geometry">
            <mxPoint x="-13" y="1" as="offset" />
          </mxGeometry>
        </mxCell>
        <mxCell id="UFs2jIFRDD2P4dvM7TEg-158" value="1" style="edgeLabel;resizable=0;html=1;align=right;verticalAlign=bottom;" parent="UFs2jIFRDD2P4dvM7TEg-156" connectable="0" vertex="1">
          <mxGeometry x="1" relative="1" as="geometry">
            <mxPoint x="-10" as="offset" />
          </mxGeometry>
        </mxCell>
        <mxCell id="ltlh27bSGSaUEZf7e7pa-25" value="" style="endArrow=classic;html=1;entryX=-0.011;entryY=0.378;entryDx=0;entryDy=0;entryPerimeter=0;fontStyle=1;exitX=-0.008;exitY=0.665;exitDx=0;exitDy=0;exitPerimeter=0;" parent="1" source="UFs2jIFRDD2P4dvM7TEg-115" target="UFs2jIFRDD2P4dvM7TEg-116" edge="1">
          <mxGeometry relative="1" as="geometry">
            <mxPoint x="450" y="1438" as="sourcePoint" />
            <mxPoint x="890" y="1129.86164" as="targetPoint" />
            <Array as="points">
              <mxPoint x="420" y="1437" />
              <mxPoint x="420" y="1530" />
              <mxPoint x="800" y="1530" />
              <mxPoint x="800" y="1203" />
            </Array>
          </mxGeometry>
        </mxCell>
        <mxCell id="ltlh27bSGSaUEZf7e7pa-26" value="n" style="edgeLabel;resizable=0;html=1;align=left;verticalAlign=bottom;fontSize=9;" parent="ltlh27bSGSaUEZf7e7pa-25" connectable="0" vertex="1">
          <mxGeometry x="-1" relative="1" as="geometry">
            <mxPoint x="-13" as="offset" />
          </mxGeometry>
        </mxCell>
        <mxCell id="ltlh27bSGSaUEZf7e7pa-27" value="1" style="edgeLabel;resizable=0;html=1;align=right;verticalAlign=bottom;" parent="ltlh27bSGSaUEZf7e7pa-25" connectable="0" vertex="1">
          <mxGeometry x="1" relative="1" as="geometry">
            <mxPoint x="-10" as="offset" />
          </mxGeometry>
        </mxCell>
        <mxCell id="ltlh27bSGSaUEZf7e7pa-28" value="" style="endArrow=classic;html=1;entryX=0;entryY=0.189;entryDx=0;entryDy=0;entryPerimeter=0;exitX=-0.008;exitY=0.768;exitDx=0;exitDy=0;exitPerimeter=0;" parent="1" source="UFs2jIFRDD2P4dvM7TEg-115" target="UFs2jIFRDD2P4dvM7TEg-117" edge="1">
          <mxGeometry relative="1" as="geometry">
            <mxPoint x="450" y="1455" as="sourcePoint" />
            <mxPoint x="963.24" y="1220.02" as="targetPoint" />
            <Array as="points">
              <mxPoint x="430" y="1454" />
              <mxPoint x="430" y="1520" />
              <mxPoint x="790" y="1520" />
              <mxPoint x="790" y="1036" />
            </Array>
          </mxGeometry>
        </mxCell>
        <mxCell id="ltlh27bSGSaUEZf7e7pa-29" value="n" style="edgeLabel;resizable=0;html=1;align=left;verticalAlign=bottom;fontSize=9;" parent="ltlh27bSGSaUEZf7e7pa-28" connectable="0" vertex="1">
          <mxGeometry x="-1" relative="1" as="geometry">
            <mxPoint x="-13" as="offset" />
          </mxGeometry>
        </mxCell>
        <mxCell id="ltlh27bSGSaUEZf7e7pa-30" value="1" style="edgeLabel;resizable=0;html=1;align=right;verticalAlign=bottom;" parent="ltlh27bSGSaUEZf7e7pa-28" connectable="0" vertex="1">
          <mxGeometry x="1" relative="1" as="geometry">
            <mxPoint x="-10" as="offset" />
          </mxGeometry>
        </mxCell>
        <mxCell id="ltlh27bSGSaUEZf7e7pa-32" value="&lt;p style=&quot;margin: 4px 0px 0px ; text-align: center&quot;&gt;&lt;font color=&quot;#000000&quot;&gt;&lt;span style=&quot;font-size: 12px&quot;&gt;&lt;b&gt;&lt;u&gt;StagesOfCOA&lt;/u&gt;&lt;/b&gt;&lt;/span&gt;&lt;/font&gt;&lt;br&gt;&lt;/p&gt;&lt;hr&gt;&lt;p style=&quot;margin: 0px ; margin-left: 8px&quot;&gt;&lt;b&gt;&lt;font color=&quot;#000000&quot;&gt;ProcessID (int)&lt;/font&gt;&lt;/b&gt;&lt;/p&gt;&lt;p style=&quot;margin: 0px ; margin-left: 8px&quot;&gt;&lt;/p&gt;&lt;p style=&quot;margin: 0px ; margin-left: 8px&quot;&gt;&lt;font color=&quot;#000000&quot;&gt;Received (boolean)&lt;/font&gt;&lt;/p&gt;&lt;p style=&quot;margin: 0px ; margin-left: 8px&quot;&gt;&lt;font color=&quot;#000000&quot;&gt;DataProcessing (boolean)&lt;/font&gt;&lt;/p&gt;&lt;p style=&quot;margin: 0px ; margin-left: 8px&quot;&gt;&lt;font color=&quot;#000000&quot;&gt;ReadyForMeeting (boolean)&lt;/font&gt;&lt;/p&gt;&lt;p style=&quot;margin: 0px ; margin-left: 8px&quot;&gt;&lt;font color=&quot;#000000&quot;&gt;&lt;br&gt;&lt;/font&gt;&lt;/p&gt;" style="verticalAlign=top;align=left;overflow=fill;fontSize=12;fontFamily=Helvetica;html=1;shadow=0;fontColor=#003366;fillColor=none;" parent="1" vertex="1">
          <mxGeometry x="60" y="1310" width="160" height="90" as="geometry" />
        </mxCell>
        <mxCell id="ltlh27bSGSaUEZf7e7pa-34" value="" style="endArrow=none;html=1;entryX=-0.006;entryY=0.938;entryDx=0;entryDy=0;entryPerimeter=0;endFill=0;startArrow=classic;startFill=1;" parent="1" target="UFs2jIFRDD2P4dvM7TEg-115" edge="1">
          <mxGeometry relative="1" as="geometry">
            <mxPoint x="57" y="1349" as="sourcePoint" />
            <mxPoint x="500" y="1330" as="targetPoint" />
            <Array as="points">
              <mxPoint x="20" y="1349" />
              <mxPoint x="20" y="1450" />
              <mxPoint x="20" y="1480" />
              <mxPoint x="260" y="1480" />
              <mxPoint x="320" y="1480" />
            </Array>
          </mxGeometry>
        </mxCell>
        <mxCell id="ltlh27bSGSaUEZf7e7pa-35" value="1" style="edgeLabel;resizable=0;html=1;align=left;verticalAlign=bottom;" parent="ltlh27bSGSaUEZf7e7pa-34" connectable="0" vertex="1">
          <mxGeometry x="-1" relative="1" as="geometry">
            <mxPoint x="-17" as="offset" />
          </mxGeometry>
        </mxCell>
        <mxCell id="ltlh27bSGSaUEZf7e7pa-36" value="1" style="edgeLabel;resizable=0;html=1;align=right;verticalAlign=bottom;fontSize=9;" parent="ltlh27bSGSaUEZf7e7pa-34" connectable="0" vertex="1">
          <mxGeometry x="1" relative="1" as="geometry">
            <mxPoint x="-5" y="1" as="offset" />
          </mxGeometry>
        </mxCell>
        <mxCell id="o4GAVgiORS4t6CzqdrUo-26" value="&lt;p style=&quot;margin: 4px 0px 0px ; text-align: center&quot;&gt;&lt;font color=&quot;#000000&quot;&gt;&lt;span style=&quot;font-size: 12px&quot;&gt;&lt;b&gt;&lt;u&gt;Assignees&lt;/u&gt;&lt;/b&gt;&lt;/span&gt;&lt;/font&gt;&lt;br&gt;&lt;/p&gt;&lt;hr&gt;&lt;p style=&quot;margin: 0px ; margin-left: 8px&quot;&gt;&lt;b&gt;&lt;font color=&quot;#000000&quot;&gt;AssigneeID (int)&lt;/font&gt;&lt;/b&gt;&lt;/p&gt;&lt;p style=&quot;margin: 0px ; margin-left: 8px&quot;&gt;&lt;/p&gt;&lt;p style=&quot;margin: 0px ; margin-left: 8px&quot;&gt;&lt;font color=&quot;#000000&quot;&gt;Name (String)&lt;/font&gt;&lt;/p&gt;&lt;p style=&quot;margin: 0px ; margin-left: 8px&quot;&gt;&lt;font color=&quot;#000000&quot;&gt;Surnme (String)&lt;/font&gt;&lt;/p&gt;&lt;p style=&quot;margin: 0px ; margin-left: 8px&quot;&gt;&lt;font color=&quot;#000000&quot;&gt;AddressID (int)&lt;/font&gt;&lt;/p&gt;&lt;p style=&quot;margin: 0px ; margin-left: 8px&quot;&gt;&lt;font color=&quot;#000000&quot;&gt;&lt;br&gt;&lt;/font&gt;&lt;/p&gt;" style="verticalAlign=top;align=left;overflow=fill;fontSize=12;fontFamily=Helvetica;html=1;shadow=0;fontColor=#003366;fillColor=none;" vertex="1" parent="1">
          <mxGeometry x="950" y="1419" width="160" height="90" as="geometry" />
        </mxCell>
        <mxCell id="o4GAVgiORS4t6CzqdrUo-27" value="" style="endArrow=classic;html=1;entryX=-0.016;entryY=0.126;entryDx=0;entryDy=0;entryPerimeter=0;exitX=-0.006;exitY=0.866;exitDx=0;exitDy=0;exitPerimeter=0;" edge="1" parent="1" source="UFs2jIFRDD2P4dvM7TEg-115" target="o4GAVgiORS4t6CzqdrUo-26">
          <mxGeometry relative="1" as="geometry">
            <mxPoint x="450" y="1464" as="sourcePoint" />
            <mxPoint x="968.2399999999998" y="1300.52" as="targetPoint" />
            <Array as="points">
              <mxPoint x="440" y="1469" />
              <mxPoint x="440" y="1510" />
              <mxPoint x="780" y="1510" />
              <mxPoint x="780" y="1430" />
            </Array>
          </mxGeometry>
        </mxCell>
        <mxCell id="o4GAVgiORS4t6CzqdrUo-28" value="n" style="edgeLabel;resizable=0;html=1;align=left;verticalAlign=bottom;fontSize=9;" connectable="0" vertex="1" parent="o4GAVgiORS4t6CzqdrUo-27">
          <mxGeometry x="-1" relative="1" as="geometry">
            <mxPoint x="-13" as="offset" />
          </mxGeometry>
        </mxCell>
        <mxCell id="o4GAVgiORS4t6CzqdrUo-29" value="1" style="edgeLabel;resizable=0;html=1;align=right;verticalAlign=bottom;" connectable="0" vertex="1" parent="o4GAVgiORS4t6CzqdrUo-27">
          <mxGeometry x="1" relative="1" as="geometry">
            <mxPoint x="-10" as="offset" />
          </mxGeometry>
        </mxCell>
        <mxCell id="o4GAVgiORS4t6CzqdrUo-31" value="" style="endArrow=classic;html=1;exitX=-0.008;exitY=0.873;exitDx=0;exitDy=0;exitPerimeter=0;entryX=1.005;entryY=0.08;entryDx=0;entryDy=0;entryPerimeter=0;" edge="1" parent="1" source="o4GAVgiORS4t6CzqdrUo-26" target="25">
          <mxGeometry relative="1" as="geometry">
            <mxPoint x="920.5200000000001" y="1503.46" as="sourcePoint" />
            <mxPoint x="900" y="900" as="targetPoint" />
            <Array as="points">
              <mxPoint x="910" y="1498" />
              <mxPoint x="910" y="900" />
            </Array>
          </mxGeometry>
        </mxCell>
        <mxCell id="o4GAVgiORS4t6CzqdrUo-32" value="n" style="edgeLabel;resizable=0;html=1;align=left;verticalAlign=bottom;" connectable="0" vertex="1" parent="o4GAVgiORS4t6CzqdrUo-31">
          <mxGeometry x="-1" relative="1" as="geometry">
            <mxPoint x="-17" as="offset" />
          </mxGeometry>
        </mxCell>
        <mxCell id="o4GAVgiORS4t6CzqdrUo-33" value="1" style="edgeLabel;resizable=0;html=1;align=right;verticalAlign=bottom;" connectable="0" vertex="1" parent="o4GAVgiORS4t6CzqdrUo-31">
          <mxGeometry x="1" relative="1" as="geometry">
            <mxPoint x="17" as="offset" />
          </mxGeometry>
        </mxCell>
      </root>
    </mxGraphModel>
  </diagram>
</mxfile>
